<svg width="15" height="15" viewBox="0 0 15 15" fill="none" xmlns="http://www.w3.org/2000/svg">
<g id="Vector">
<path d="M5.19495 7.56912C5.19495 7.56912 6.17546 8.00115 6.6055 8.43318C7.03555 8.86521 7.43119 9.81567 7.43119 9.81567L7.60321 9.78111C7.60321 9.78111 8.03326 8.79608 8.4633 8.36406C8.89335 7.93203 9.83945 7.53456 9.83945 7.53456L9.80505 7.43087C9.80505 7.43087 8.82454 6.99885 8.39449 6.56682C7.96445 6.13479 7.56881 5.18433 7.56881 5.18433L7.39679 5.21889C7.39679 5.21889 6.96674 6.20392 6.5367 6.63595C6.10665 7.06797 5.16055 7.46544 5.16055 7.46544L5.19495 7.56912Z" fill="#F0F0F0"/>
<path d="M7.43119 15V9.81567M2.4845e-07 7.56912H5.19495M5.19495 7.56912C5.19495 7.56912 6.17546 8.00115 6.6055 8.43318C7.03555 8.86521 7.43119 9.81567 7.43119 9.81567M5.19495 7.56912L5.16055 7.46544M7.43119 9.81567L7.60321 9.78111M7.56881 0V5.18433M15 7.43088L9.80505 7.43087M9.80505 7.43087C9.80505 7.43087 8.82454 6.99885 8.39449 6.56682C7.96445 6.13479 7.56881 5.18433 7.56881 5.18433M9.80505 7.43087L9.83945 7.53456M7.56881 5.18433L7.39679 5.21889M0 7.46544L5.16055 7.46544M7.39679 5.7592e-07V5.21889M7.39679 5.21889C7.39679 5.21889 6.96674 6.20392 6.5367 6.63595C6.10665 7.06797 5.16055 7.46544 5.16055 7.46544M15 7.53456L9.83945 7.53456M7.60321 15L7.60321 9.78111M7.60321 9.78111C7.60321 9.78111 8.03326 8.79608 8.4633 8.36406C8.89335 7.93203 9.83945 7.53456 9.83945 7.53456" stroke="#F0F0F0"/>
</g>
</svg>
