<svg width="19" height="21" viewBox="0 0 19 21" fill="none" xmlns="http://www.w3.org/2000/svg">
<path id="Vector" d="M2.01215 9.41593L1.95409 9.55424C1.85204 9.51141 1.75955 9.44867 1.68203 9.36969C1.682 9.36965 1.68197 9.36963 1.68194 9.36959L1.789 9.26453L2.01215 9.41593ZM2.01215 9.41593L1.95409 9.55424C2.05618 9.59709 2.16578 9.61916 2.2765 9.61916C2.38722 9.61916 2.49682 9.59709 2.59891 9.55424L2.54085 9.41593M2.01215 9.41593H2.54085M2.54085 9.41593L2.59891 9.55424C2.70091 9.51143 2.79336 9.44873 2.87086 9.3698C2.87093 9.36973 2.871 9.36966 2.87106 9.36959L8.8234 3.34551C9.85373 2.55828 10.8737 2.18701 11.8333 2.23652L11.8333 2.23652C13.1573 2.30451 14.1643 2.79578 15.0508 3.63558C15.9122 4.45151 16.472 5.61422 16.472 7.05459C16.472 8.16403 16.1611 9.10182 15.5417 9.89891L7.15668 18.5363C6.63624 18.9556 6.04385 19.1647 5.40624 19.1394C4.47532 19.1006 3.86862 18.8311 3.4255 18.3927L3.42535 18.3925C2.85368 17.8285 2.528 17.1829 2.528 16.2734C2.528 15.5545 2.7723 14.8941 3.28683 14.2646L10.7351 6.66258L10.7352 6.6626L10.7373 6.66031C10.9419 6.44253 11.1236 6.28361 11.2801 6.17575C11.4381 6.06683 11.5623 6.01566 11.6526 6.00191L11.6526 6.00192L11.6545 6.0016C11.8119 5.97552 11.9733 5.98874 12.1244 6.0401C12.2755 6.09146 12.4115 6.17936 12.5204 6.29598L12.5211 6.29674C12.7372 6.52506 12.8218 6.77566 12.7857 7.13666L12.7857 7.13678C12.7643 7.35246 12.6753 7.56032 12.494 7.77452L5.65068 14.7826L5.65039 14.7829C5.49437 14.9436 5.40771 15.1591 5.40907 15.383C5.41043 15.607 5.49971 15.8214 5.65767 15.9802L5.6577 15.9802C5.7357 16.0586 5.82854 16.1206 5.93077 16.1627C6.03301 16.2048 6.14261 16.2262 6.25318 16.2255C6.36375 16.2248 6.47308 16.2021 6.57479 16.1588C6.67649 16.1154 6.76853 16.0522 6.84556 15.9729C6.84557 15.9729 6.84559 15.9729 6.8456 15.9729L13.7253 8.92533L13.7256 8.92556L13.7322 8.91785C14.1593 8.41671 14.3968 7.88674 14.4552 7.30765L14.4553 7.30753C14.5393 6.46787 14.2987 5.72217 13.7352 5.12578C13.4411 4.81237 13.0749 4.57561 12.6684 4.43611C12.2619 4.29662 11.8275 4.25862 11.403 4.32543C10.7561 4.42471 10.141 4.8312 9.5307 5.48183L2.04784 13.1215L2.04744 13.1211M2.54085 9.41593L2.04744 13.1211M2.04744 13.1211L2.03915 13.1312M2.04744 13.1211L2.03915 13.1312M2.03915 13.1312C1.24144 14.1011 0.85 15.1421 0.85 16.2724C0.85 17.6896 1.38514 18.7479 2.25253 19.6039L2.03915 13.1312Z" fill="black" stroke="black" stroke-width="0.3"/>
</svg>
